# xmcd CD database file
#
# Track frame offsets:
#	150
#	10260
#	19213
#	31030
#	41230
#	55010
#	66492
#	79058
#	90037
#	99893
#	110472
#	122504
#	132698
#	144530
#	154897
#	166531
#	175154
#	183884
#	191721
#	203808
#
# Disc length: 2867 seconds
#
# Revision: 0
# Processed by: cddbd v1.5.2PL0 Copyright (c) Steve Scherf et al.
# Submitted via: CDex 1.99.1
#
DISCID=000b3114
DTITLE=Pat Boone - CD4 - The EP Collection 1955-1961
DYEAR=2018
DGENRE=Country
TTITLE0=Love Letters in the Sand
TTITLE1=Why Baby Why
TTITLE2=I Almost Lost My Mind
TTITLE3=Remember You're Mine
TTITLE4=I'm In The Mood For Love
TTITLE5=Secret Love
TTITLE6=You Belong To Me
TTITLE7=Because of You
TTITLE8=Beside Me
TTITLE9=Midnight
TTITLE10=Tumbling Tumbleweeds
TTITLE11=Melody Of Love
TTITLE12=The Faithful Heart
TTITLE13=To The Center Of The Earth
TTITLE14=Twice As Tall
TTITLE15=My Love Is Like A Red, Red Rose
TTITLE16=All Hands On Deck
TTITLE17=There's No One Like You
TTITLE18=I Got It Made
TTITLE19=Somewhere There's Home
EXTD=YEAR: 2018
EXTT0=
EXTT1=
EXTT2=
EXTT3=
EXTT4=
EXTT5=
EXTT6=
EXTT7=
EXTT8=
EXTT9=
EXTT10=
EXTT11=
EXTT12=
EXTT13=
EXTT14=
EXTT15=
EXTT16=
EXTT17=
EXTT18=
EXTT19=
PLAYORDER=
